<!-- Professional BBA Program Image -->
<svg width="400" height="300" xmlns="http://www.w3.org/2000/svg">
  <defs>
    <linearGradient id="bbaGrad" x1="0%" y1="0%" x2="100%" y2="100%">
      <stop offset="0%" style="stop-color:#64748b;stop-opacity:1" />
      <stop offset="100%" style="stop-color:#475569;stop-opacity:1" />
    </linearGradient>
  </defs>
  <rect width="400" height="300" fill="url(#bbaGrad)"/>
  
  <!-- Business elements -->
  <rect x="60" y="60" width="70" height="70" fill="rgba(255,255,255,0.15)" rx="10"/>
  <rect x="270" y="80" width="70" height="50" fill="rgba(255,255,255,0.1)" rx="8"/>
  <circle cx="200" cy="70" r="25" fill="rgba(255,255,255,0.12)"/>
  
  <!-- Business icons -->
  <rect x="85" y="80" width="20" height="30" fill="white" opacity="0.7" rx="2"/>
  <rect x="85" y="85" width="15" height="2" fill="url(#bbaGrad)"/>
  <rect x="85" y="90" width="18" height="2" fill="url(#bbaGrad)"/>
  <rect x="85" y="95" width="12" height="2" fill="url(#bbaGrad)"/>
  
  <polygon points="290,95 295,85 300,95 305,85 310,95 315,85 320,95" fill="white" opacity="0.6"/>
  
  <!-- Main content -->
  <rect x="80" y="180" width="240" height="80" fill="rgba(255,255,255,0.1)" rx="16"/>
  <text x="200" y="210" text-anchor="middle" font-family="Arial, sans-serif" font-size="28" font-weight="bold" fill="white">BBA Program</text>
  <text x="200" y="235" text-anchor="middle" font-family="Arial, sans-serif" font-size="16" fill="white" opacity="0.9">Business Administration</text>
  <text x="200" y="250" text-anchor="middle" font-family="Arial, sans-serif" font-size="14" fill="white" opacity="0.8">Leadership • Strategy • Excellence</text>
</svg>
