<!-- Professional BTeach Program Image -->
<svg width="400" height="300" xmlns="http://www.w3.org/2000/svg">
  <defs>
    <linearGradient id="bteachGrad" x1="0%" y1="0%" x2="100%" y2="100%">
      <stop offset="0%" style="stop-color:#f59e0b;stop-opacity:1" />
      <stop offset="100%" style="stop-color:#d97706;stop-opacity:1" />
    </linearGradient>
  </defs>
  <rect width="400" height="300" fill="url(#bteachGrad)"/>
  
  <!-- Education elements -->
  <rect x="80" y="60" width="60" height="80" fill="rgba(255,255,255,0.15)" rx="8"/>
  <rect x="260" y="70" width="80" height="60" fill="rgba(255,255,255,0.1)" rx="10"/>
  <circle cx="200" cy="80" r="25" fill="rgba(255,255,255,0.12)"/>
  
  <!-- Book -->
  <rect x="95" y="80" width="30" height="40" fill="white" opacity="0.8" rx="2"/>
  <line x1="100" y1="90" x2="120" y2="90" stroke="url(#bteachGrad)" stroke-width="2"/>
  <line x1="100" y1="95" x2="115" y2="95" stroke="url(#bteachGrad)" stroke-width="2"/>
  <line x1="100" y1="100" x2="118" y2="100" stroke="url(#bteachGrad)" stroke-width="2"/>
  <line x1="100" y1="105" x2="112" y2="105" stroke="url(#bteachGrad)" stroke-width="2"/>
  
  <!-- Graduation cap -->
  <polygon points="190,65 210,65 205,75 195,75" fill="white" opacity="0.8"/>
  <rect x="195" y="75" width="10" height="8" fill="white" opacity="0.8"/>
  <circle cx="212" cy="67" r="2" fill="white" opacity="0.6"/>
  
  <!-- Blackboard -->
  <rect x="275" y="85" width="50" height="30" fill="rgba(0,0,0,0.3)" rx="3"/>
  <text x="300" y="95" text-anchor="middle" font-family="Arial, sans-serif" font-size="8" fill="white">ABC</text>
  <text x="300" y="105" text-anchor="middle" font-family="Arial, sans-serif" font-size="6" fill="white">123</text>
  
  <!-- Main content -->
  <rect x="80" y="180" width="240" height="80" fill="rgba(255,255,255,0.1)" rx="16"/>
  <text x="200" y="210" text-anchor="middle" font-family="Arial, sans-serif" font-size="28" font-weight="bold" fill="white">BTeach Program</text>
  <text x="200" y="235" text-anchor="middle" font-family="Arial, sans-serif" font-size="16" fill="white" opacity="0.9">Teaching</text>
  <text x="200" y="250" text-anchor="middle" font-family="Arial, sans-serif" font-size="14" fill="white" opacity="0.8">Education • Impact • Future</text>
</svg>
